<?xml version="1.0" encoding="UTF-8" standalone="no"?>
<svg
   xmlns:dc="http://purl.org/dc/elements/1.1/"
   xmlns:cc="http://creativecommons.org/ns#"
   xmlns:rdf="http://www.w3.org/1999/02/22-rdf-syntax-ns#"
   xmlns:svg="http://www.w3.org/2000/svg"
   xmlns="http://www.w3.org/2000/svg"
   xmlns:xlink="http://www.w3.org/1999/xlink"
   xmlns:sodipodi="http://sodipodi.sourceforge.net/DTD/sodipodi-0.dtd"
   xmlns:inkscape="http://www.inkscape.org/namespaces/inkscape"
   width="245.722"
   height="279.583"
   viewBox="0 0 65.014 73.973"
   version="1.1"
   id="svg146"
   sodipodi:docname="Seal of the City of Tasikmalaya (1).svg"
   inkscape:version="1.0.1 (3bc2e813f5, 2020-09-07)">
  <metadata
     id="metadata150">
    <rdf:RDF>
      <cc:Work
         rdf:about="">
        <dc:format>image/svg+xml</dc:format>
        <dc:type
           rdf:resource="http://purl.org/dc/dcmitype/StillImage" />
      </cc:Work>
    </rdf:RDF>
  </metadata>
  <sodipodi:namedview
     pagecolor="#ffffff"
     bordercolor="#666666"
     borderopacity="1"
     objecttolerance="10"
     gridtolerance="10"
     guidetolerance="10"
     inkscape:pageopacity="0"
     inkscape:pageshadow="2"
     inkscape:window-width="1366"
     inkscape:window-height="705"
     id="namedview148"
     showgrid="false"
     inkscape:snap-bbox="false"
     inkscape:object-paths="true"
     inkscape:snap-intersection-paths="true"
     inkscape:snap-smooth-nodes="true"
     inkscape:snap-midpoints="true"
     inkscape:zoom="1.5450526"
     inkscape:cx="125.18827"
     inkscape:cy="206.61766"
     inkscape:window-x="-8"
     inkscape:window-y="-8"
     inkscape:window-maximized="1"
     inkscape:current-layer="svg146" />
  <style
     id="style2"><![CDATA[.B{stroke:#000}.C{opacity:.999}.D{stroke-width:.185}.E{fill-rule:evenodd}.F{stroke-linejoin:round}.G{stroke-width:.265}.H{stroke-linecap:round}.I{stroke-width:.165}]]></style>
  <defs
     id="defs54">
    <linearGradient
       inkscape:collect="always"
       id="linearGradient1005">
      <stop
         style="stop-color:#000000;stop-opacity:1;"
         offset="0"
         id="stop1001" />
      <stop
         style="stop-color:#000000;stop-opacity:0;"
         offset="1"
         id="stop1003" />
    </linearGradient>
    <linearGradient
       inkscape:collect="always"
       id="linearGradient985">
      <stop
         style="stop-color:#000000;stop-opacity:1;"
         offset="0"
         id="stop981" />
      <stop
         style="stop-color:#000000;stop-opacity:0;"
         offset="1"
         id="stop983" />
    </linearGradient>
    <linearGradient
       id="A"
       x1="0"
       y1="0"
       x2="65.014"
       y2="0"
       gradientUnits="userSpaceOnUse"
       spreadMethod="pad">
      <stop
         offset="0"
         stop-color="#790000"
         id="stop4" />
      <stop
         offset=".5"
         stop-color="red"
         id="stop6" />
      <stop
         offset="1"
         stop-color="#790000"
         id="stop8" />
    </linearGradient>
    <linearGradient
       id="B"
       x1="0"
       y1="0"
       x2="65.014"
       y2="0"
       gradientUnits="userSpaceOnUse"
       spreadMethod="pad">
      <stop
         offset="0"
         stop-color="gray"
         id="stop11" />
      <stop
         offset=".498"
         stop-color="#fff"
         id="stop13" />
      <stop
         offset="1"
         stop-color="gray"
         id="stop15" />
    </linearGradient>
    <linearGradient
       id="C"
       x1="0"
       y1="0"
       x2="65.014"
       y2="0"
       gradientUnits="userSpaceOnUse"
       spreadMethod="pad">
      <stop
         offset="0"
         stop-color="#fff"
         id="stop18" />
      <stop
         offset="1"
         stop-color="#d3d3d3"
         id="stop20" />
    </linearGradient>
    <pattern
       xlink:href="#G"
       id="D"
       patternTransform="matrix(0.264583,0,0,0.264583,11.283623,47.681382)" />
    <radialGradient
       id="E"
       cx="122.86"
       cy="158.215"
       fx="122.86"
       fy="158.215"
       r="114.433"
       gradientTransform="matrix(0.38331922,0,0,0.30392774,-14.588374,-11.099575)"
       xlink:href="#T">
      <stop
         offset="0"
         stop-color="#53d4ff"
         id="stop24" />
      <stop
         offset="1"
         stop-color="#1e90ff"
         id="stop26" />
    </radialGradient>
    <linearGradient
       id="F"
       x1="113.103"
       y1="117.772"
       x2="61.491"
       y2="124.414"
       xlink:href="#T"
       gradientTransform="translate(-31.269,-94.832)">
      <stop
         offset="0"
         stop-color="#ff0"
         id="stop29" />
      <stop
         offset="1"
         stop-color="#228b22"
         id="stop31" />
    </linearGradient>
    <pattern
       patternUnits="userSpaceOnUse"
       width="20.2"
       height="18.677"
       patternTransform="translate(380.49525,180.2137)"
       id="G">
      <path
         d="M7.275 0h5.292v5.474H7.275zM0 3.93h2.529v10.678H0zm17.672 0H20.2v10.678h-2.529zM4.04 6.424h12.65v5.563H4.04zM0 15.697h6.623v2.98H0zm13.577 0H20.2v2.98h-6.623zM0 0h6.623v2.98H0zm13.577 0H20.2v2.98h-6.623zM7.275 13.203h5.292v5.474H7.275z"
         fill="#ff0"
         fill-opacity="1"
         stroke="none"
         stroke-width=".786"
         stroke-miterlimit="4"
         stroke-dasharray="none"
         stroke-opacity="1"
         class="C E F H"
         id="path34" />
    </pattern>
    <linearGradient
       xlink:href="#C"
       id="H"
       x1="304.97644"
       y1="26.981285"
       x2="308.06802"
       y2="26.981285"
       gradientTransform="scale(0.20771687,4.8142455)"
       gradientUnits="userSpaceOnUse" />
    <linearGradient
       id="I"
       x1="63.337"
       y1="121.503"
       x2="64.667"
       y2="121.503"
       xlink:href="#T">
      <stop
         offset="0"
         stop-color="#d3d3d3"
         id="stop38" />
      <stop
         offset="1"
         stop-color="#a9a9a9"
         id="stop40" />
    </linearGradient>
    <linearGradient
       xlink:href="#C"
       id="J"
       x1="335.93188"
       y1="642.0184"
       x2="338.50747"
       y2="639.61953"
       gradientTransform="scale(0.9399821,1.06385)"
       gradientUnits="userSpaceOnUse" />
    <linearGradient
       xlink:href="#C"
       id="K"
       x1="358.84725"
       y1="642.0184"
       x2="356.26725"
       y2="639.61953"
       gradientTransform="scale(0.9399821,1.06385)"
       gradientUnits="userSpaceOnUse" />
    <linearGradient
       xlink:href="#C"
       id="L"
       x1="356.60409"
       y1="632.3701"
       x2="354.04408"
       y2="629.98982"
       gradientTransform="scale(0.9399821,1.06385)"
       gradientUnits="userSpaceOnUse" />
    <linearGradient
       xlink:href="#C"
       id="M"
       x1="333.84259"
       y1="632.3701"
       x2="336.39821"
       y2="629.98982"
       gradientTransform="scale(0.9399821,1.06385)"
       gradientUnits="userSpaceOnUse" />
    <linearGradient
       xlink:href="#linearGradient1005"
       id="N"
       x1="134.75447"
       y1="213.30309"
       x2="209.55455"
       y2="213.30309"
       gradientTransform="scale(2.3286872,0.4294265)"
       gradientUnits="userSpaceOnUse" />
    <linearGradient
       xlink:href="#A"
       id="O"
       x1="147.96091"
       y1="187.93642"
       x2="198.09016"
       y2="187.9364"
       gradientUnits="userSpaceOnUse"
       gradientTransform="scale(2.3169702,0.43159814)" />
    <linearGradient
       xlink:href="#linearGradient985"
       id="P"
       x1="45.781307"
       y1="122.97092"
       x2="74.843269"
       y2="122.97092"
       gradientUnits="userSpaceOnUse"
       gradientTransform="scale(1.057423,0.94569532)" />
    <linearGradient
       xlink:href="#C"
       id="Q"
       x1="158.55635"
       y1="112.01936"
       x2="159.46722"
       y2="117.79694"
       gradientTransform="scale(0.76191208,1.3124874)"
       gradientUnits="userSpaceOnUse" />
    <linearGradient
       xlink:href="#B"
       id="R"
       x1="98.481674"
       y1="403.11899"
       x2="394.06311"
       y2="403.11899"
       gradientTransform="scale(1.645543,0.60770213)"
       gradientUnits="userSpaceOnUse" />
    <linearGradient
       xlink:href="#C"
       id="S"
       x1="204.11542"
       y1="112.01936"
       x2="203.20586"
       y2="117.79694"
       gradientTransform="scale(0.76191208,1.3124874)"
       gradientUnits="userSpaceOnUse" />
    <linearGradient
       id="T"
       gradientUnits="userSpaceOnUse" />
    <linearGradient
       inkscape:collect="always"
       xlink:href="#A"
       id="linearGradient993"
       gradientUnits="userSpaceOnUse"
       gradientTransform="scale(1.057423,0.94569532)"
       x1="45.781307"
       y1="122.97092"
       x2="74.843269"
       y2="122.97092" />
    <linearGradient
       inkscape:collect="always"
       xlink:href="#B"
       id="linearGradient1007"
       gradientUnits="userSpaceOnUse"
       gradientTransform="scale(2.3286872,0.4294265)"
       x1="134.75447"
       y1="213.30309"
       x2="209.55455"
       y2="213.30309" />
  </defs>
  <path
     d="m 32.506002,2.2070494 c -7.806257,0 -15.528906,1.3334983 -21.88075,3.0355607 C 10.267801,7.6820654 9.4658496,9.7561315 8.0688513,11.269546 6.6935489,12.759413 4.7993992,13.65926 2.6433123,14.19557 1.3976556,27.682688 3.0679681,38.069423 6.2553995,46.094225 H 58.758456 C 61.945358,38.069423 63.614877,27.682424 62.368956,14.19557 60.213134,13.65926 58.318719,12.759678 56.943417,11.269546 55.546683,9.7561315 54.746055,7.6818008 54.388603,5.2426101 48.036495,3.5402831 40.312788,2.2070494 32.505737,2.2070494 Z"
     fill="url(#E)"
     id="path56"
     style="fill:url(#E);stroke-width:0.264583" />
  <path
     d="m 31.808,10.409 c -1.584,5.093 -8.32,5.903 -12.971,9.177 -5.377,3.785 -8.268,8.412 -3.584,15.803 H 48.362 C 53.046,27.998 50.156,23.372 44.778,19.586 40.128,16.312 33.392,15.502 31.807,10.409 Z"
     fill="url(#F)"
     stroke="#175e17"
     class="C G"
     id="path58"
     style="fill:url(#F)" />
  <path
     d="m 12.102,21.275 -3.15,-2.104 0.278,-0.417 1.562,1.044 -0.517,-2.608 0.378,-0.565 0.393,2.174 2.795,-0.128 -0.367,0.55 -2.343,0.056 0.158,0.852 1.091,0.729 z M 12.656,17.2 q -0.692,-0.641 -0.737,-1.375 -0.048,-0.735 0.497,-1.322 0.357,-0.385 0.827,-0.523 0.47,-0.138 0.949,0.006 0.479,0.141 0.896,0.528 0.422,0.392 0.598,0.872 0.175,0.48 0.058,0.952 -0.119,0.471 -0.455,0.833 -0.364,0.392 -0.84,0.525 -0.476,0.133 -0.951,-0.012 -0.475,-0.145 -0.841,-0.484 z m 0.357,-0.374 q 0.502,0.466 1.041,0.465 0.539,-0.004 0.917,-0.411 0.385,-0.415 0.341,-0.953 -0.042,-0.54 -0.578,-1.037 -0.339,-0.314 -0.698,-0.433 -0.359,-0.122 -0.703,-0.028 -0.344,0.09 -0.599,0.364 -0.362,0.39 -0.355,0.922 0.007,0.528 0.634,1.11 z m 4.724,-2.034 -2.098,-2.6 -0.971,0.784 -0.281,-0.348 2.337,-1.885 0.281,0.348 -0.975,0.787 2.098,2.6 z m 1.132,-0.931 -0.75,-3.988 0.46,-0.283 3.308,2.41 -0.486,0.3 -0.978,-0.745 -1.348,0.831 0.248,1.195 z m 0.114,-1.898 1.093,-0.674 -0.887,-0.685 q -0.405,-0.312 -0.641,-0.528 0.13,0.348 0.206,0.723 z M 24.157,11.067 22.955,7.95 21.791,8.399 21.63,7.982 l 2.801,-1.08 0.161,0.417 -1.169,0.451 1.202,3.117 z m 1.359,-0.55 0.536,-4.022 0.525,-0.125 2.387,3.325 -0.555,0.133 -0.696,-1.013 -1.541,0.368 -0.138,1.212 z M 26.218,8.75 27.467,8.452 26.839,7.523 Q 26.552,7.1 26.395,6.821 26.409,7.192 26.364,7.572 Z m 2.876,-0.287 0.467,-0.082 q 0.058,0.28 0.195,0.452 0.139,0.169 0.407,0.26 0.267,0.088 0.589,0.06 Q 31.038,9.128 31.249,9.024 31.46,8.92 31.553,8.764 31.648,8.605 31.633,8.43 31.617,8.252 31.503,8.13 31.388,8.005 31.144,7.936 30.987,7.89 30.456,7.812 29.925,7.731 29.707,7.639 29.424,7.521 29.272,7.324 29.122,7.124 29.1,6.864 29.075,6.578 29.216,6.317 q 0.14,-0.264 0.441,-0.42 0.3,-0.156 0.681,-0.189 0.42,-0.037 0.751,0.072 0.333,0.106 0.529,0.353 0.195,0.248 0.237,0.578 L 31.379,6.789 Q 31.309,6.435 31.069,6.271 30.832,6.108 30.397,6.145 29.944,6.185 29.75,6.37 q -0.192,0.183 -0.171,0.417 0.018,0.203 0.176,0.322 0.156,0.119 0.775,0.205 0.622,0.083 0.857,0.166 0.343,0.123 0.52,0.344 0.177,0.218 0.204,0.522 0.026,0.301 -0.123,0.584 -0.149,0.28 -0.461,0.458 -0.309,0.175 -0.713,0.21 Q 30.302,9.643 29.941,9.524 29.583,9.405 29.359,9.123 29.137,8.839 29.094,8.461 Z m 3.884,0.988 0.061,-3.787 0.501,0.008 -0.061,3.787 z m 1.367,0.008 0.451,-3.761 0.498,0.06 -0.224,1.865 2.091,-1.641 0.675,0.081 -1.761,1.335 1.379,2.435 L 36.797,9.754 35.686,7.69 34.998,8.216 34.842,9.519 Z m 3.513,0.451 1.067,-3.635 0.724,0.213 0.105,2.826 q 0.013,0.394 0.016,0.589 0.12,-0.18 0.364,-0.526 l 1.613,-2.273 0.647,0.19 -1.067,3.634 -0.464,-0.136 0.893,-3.042 -1.949,2.732 -0.434,-0.127 -0.143,-3.403 -0.908,3.094 z m 3.841,1.165 2.963,-2.772 0.486,0.236 -0.26,4.085 -0.514,-0.249 0.104,-1.225 -1.425,-0.692 -0.875,0.85 z m 1.663,-0.922 1.155,0.561 0.103,-1.116 q 0.046,-0.509 0.101,-0.824 -0.224,0.296 -0.5,0.562 z m 1.836,2.702 2.098,-3.154 0.417,0.278 -1.851,2.781 1.553,1.033 -0.248,0.372 z m 2.128,1.408 3.579,-1.912 0.408,0.353 -1.306,3.879 -0.432,-0.374 0.417,-1.157 -1.198,-1.036 -1.065,0.595 z m 1.844,-0.461 0.971,0.84 0.388,-1.052 q 0.176,-0.48 0.311,-0.77 -0.293,0.228 -0.628,0.413 z m 1.518,3.624 1.198,-1.067 0.66,-2.542 0.405,0.455 -0.356,1.317 q -0.102,0.367 -0.223,0.714 0.335,-0.07 0.775,-0.136 l 1.32,-0.192 0.388,0.436 -2.636,0.323 -1.198,1.067 z m 1.115,1.23 3.958,-0.895 0.3,0.449 -2.288,3.393 -0.317,-0.475 0.708,-1.005 -0.88,-1.317 -1.185,0.291 z m 1.901,0.045 0.713,1.068 0.653,-0.911 q 0.297,-0.416 0.504,-0.66 -0.343,0.142 -0.715,0.232 z"
     fill="#ffffff"
     id="path60" />
  <path
     d="m 6.256,46.094 c 1.602,4.032 3.585,7.471 5.776,10.402 6.496,8.688 14.808,12.962 20.474,15.099 5.666,-2.137 13.98,-6.41 20.477,-15.099 2.191,-2.931 4.175,-6.369 5.776,-10.402 z"
     id="path62" />
  <path
     d="m 6.255664,46.094225 c 1.6017855,4.03251 3.5848351,7.471031 5.776376,10.401816 6.496306,8.688377 14.807917,12.962186 20.474226,15.099223 5.66631,-2.137037 13.980037,-6.410317 20.476872,-15.099223 2.191541,-2.93105 4.174591,-6.369571 5.775847,-10.401816 z"
     fill="url(#D)"
     id="path64"
     style="stroke-width:0.264583" />
  <path
     d="m 6.256,46.094 h 52.503 v 0.645 H 6.256 Z"
     class="C E"
     id="path66" />
  <g
     class="B G"
     id="g72"
     transform="translate(-31.269,-94.832)">
    <path
       d="m 75.31,122.506 a 1.73,1.73 0 0 0 -0.725,0.152 l -5.691,2.57 -4,-1.453 a 1.73,1.73 0 0 0 -1.349,0.07 l -4.633,2.254 -1.307,-0.629 a 1.73,1.73 0 0 0 -1.528,0.013 l -4.007,2.017 -0.588,-0.274 -1.008,-0.441 -0.449,-0.168 c -0.079,-0.026 -0.158,-0.051 -0.301,-0.08 -0.143,-0.029 -0.212,-0.332 -1.168,0.147 0.221,-0.111 0.056,-0.026 0.004,-0.004 l -0.226,0.094 -0.791,0.327 -2.351,0.959 -2.696,1.1 -0.681,0.278 -1.935,0.789 v 0.814 h 0.858 1.729 21.309 v 9.004 h 26.257 v -9.462 a 1.73,1.73 0 0 0 -0.971,-1.556 l -13.004,-6.344 a 1.73,1.73 0 0 0 -0.748,-0.174 h -0.001 z"
       fill="#ffffff"
       id="path68" />
    <path
       d="m 75.3,124.236 -6.336,2.859 -4.66,-1.693 -5.389,2.62 -2.059,-0.99 -4.758,2.392 c 0,0 -2.628,-1.262 -2.768,-1.192 -0.14,0.07 -6.863,2.807 -6.863,2.807 h 3.851 l 4.858,1.241 h -3.638 v 0.618 h 5.521 l 5.016,1.313 -3.553,0.05 v 0.768 h 6.369 l 1.858,1.239 0.005,3.775 h 25.549 v -9.462 z"
       fill="#759bcf"
       id="path70" />
  </g>
  <path
     d="m 2.732,32.415 v 6.344 l 2.532,4.612 h 26.215 v -1.935 l -1.858,-1.239 h -6.369 v -0.768 h 3.742 L 21.79,38.066 h -5.521 v -0.618 h 3.638 L 15.049,36.207 H 8.611 V 35.45 h 3.61 z m 1.475,2.726 h 1.202 v 1.338 H 4.207 Z m 1.895,0 h 1.202 v 1.338 H 6.102 Z m -1.895,2.106 h 1.202 v 1.338 H 4.207 Z m 1.895,0 h 1.202 v 1.338 H 6.102 Z m 2.506,0 H 9.81 v 1.338 H 8.608 Z m 1.995,0 h 1.202 v 1.338 h -1.202 z m 2.602,0 h 1.202 v 1.338 h -1.202 z m -2.156,2.131 h 1.202 v 1.338 h -1.202 z m 2.156,0 h 1.202 v 1.338 h -1.202 z m 2.243,0 h 1.202 v 1.338 h -1.202 z m 2.379,0 h 1.202 v 1.338 h -1.202 z m 2.379,0 h 1.202 v 1.338 h -1.202 z m -2.379,1.908 h 1.202 v 1.338 h -1.202 z m 2.379,0 h 1.202 v 1.338 h -1.202 z m 2.527,0 h 1.202 v 1.338 h -1.202 z m 2.547,0 h 1.202 v 1.338 h -1.201 z m 2.41,0 h 1.201 v 1.338 H 27.69 Z"
     fill="#ffffff"
     class="B I"
     id="path74" />
  <g
     stroke="#696969"
     class="I"
     id="g80"
     transform="translate(-31.269,-94.832)">
    <path
       d="m 62.269,119.5803 v 0.999 l -3.855,-4.363 h 1.174 z"
       fill="url(#M)"
       id="path76"
       style="fill:url(#M);stroke:#000000"
       sodipodi:nodetypes="ccccc" />
    <path
       d="m 63.885,119.5803 v 0.999 l 3.855,-4.363 h -1.174 z"
       fill="url(#L)"
       id="path78"
       style="fill:url(#L);stroke:#000000"
       sodipodi:nodetypes="ccccc" />
  </g>
  <g
     id="g1056">
    <path
       d="m 31.479,46.094 v -4.287 l 30.398,-7.186 v 6.209 l -3.118,5.265 z"
       fill="#ffffff"
       class="B G"
       id="path82" />
    <path
       d="m 32.137,42.337 v 3.049 h 25.235 c 1.073,-1.866 2.144,-5.294 2.979,-9.254 z"
       id="path84" />
    <path
       d="m 58.727,37.065 c -0.118,0.014 -0.34,0.083 -0.49,0.16 -0.246,0.126 -0.54,0.339 -0.811,0.589 L 57.2,38.022 57.038,37.898 c -0.309,-0.236 -0.78,-0.348 -1.098,-0.263 -0.159,0.043 -0.186,0.101 -0.046,0.101 0.15,0 0.486,0.187 0.61,0.34 0.124,0.153 0.251,0.388 0.251,0.463 0,0.026 -0.073,0.166 -0.162,0.309 -0.549,0.885 -1.051,2.224 -1.275,3.397 -0.068,0.357 -0.089,0.586 -0.102,1.119 l -0.017,0.67 -0.251,0.256 c -0.138,0.141 -0.347,0.327 -0.465,0.413 -0.209,0.154 -0.634,0.379 -0.714,0.379 -0.022,0 -0.049,0.015 -0.061,0.033 -0.035,0.057 0.357,0.037 0.547,-0.028 0.253,-0.087 0.536,-0.235 0.843,-0.441 l 0.265,-0.177 0.058,0.109 c 0.163,0.302 0.557,0.57 0.839,0.57 0.204,0 0.264,-0.043 0.134,-0.097 -0.241,-0.1 -0.449,-0.473 -0.486,-0.874 l -0.019,-0.202 0.224,-0.278 a 7.08,7.08 0 0 0 0.867,-1.382 c 0.543,-1.089 0.8,-2.223 0.7,-3.09 a 3.55,3.55 0 0 0 -0.117,-0.578 l -0.075,-0.226 0.166,-0.252 c 0.219,-0.333 0.742,-0.85 0.985,-0.976 0.103,-0.054 0.177,-0.108 0.164,-0.121 -0.013,-0.013 -0.037,-0.011 -0.076,-0.006 z m -3.151,0.859 -0.143,0.023 c -0.152,0.024 -0.192,0.06 -0.193,0.172 0,0.038 -0.01,0.14 -0.022,0.226 -0.02,0.143 -0.016,0.155 0.041,0.139 l 0.151,-0.037 c 0.077,-0.017 0.091,-0.04 0.109,-0.176 l 0.039,-0.252 z m -1.52,0.243 c -0.07,0.007 -0.15,0.04 -0.229,0.097 -0.327,0.237 -0.505,0.742 -0.558,1.586 l -0.016,0.356 c 0.003,0 0.044,-0.081 0.089,-0.181 0.045,-0.1 0.099,-0.181 0.119,-0.181 0.02,0 0.065,0.064 0.099,0.142 a 0.74,0.74 0 0 0 0.131,0.204 c 0.064,0.058 0.075,0.058 0.179,0.008 l 0.111,-0.053 -0.062,0.178 c -0.08,0.227 -0.079,0.334 0.005,0.547 0.084,0.213 0.065,0.299 -0.103,0.421 -0.143,0.103 -0.142,0.105 0.046,0.166 l 0.126,0.041 -0.175,0.081 c -0.22,0.102 -0.219,0.101 -0.133,0.162 0.115,0.08 0.087,0.184 -0.111,0.426 -0.227,0.277 -0.309,0.435 -0.334,0.642 -0.018,0.155 -0.021,0.159 -0.089,0.114 -0.1,-0.066 -0.216,10e-4 -0.474,0.275 l -0.208,0.22 0.013,-0.19 a 0.71,0.71 0 0 0 0,-0.189 c -0.02,0 -0.27,0.55 -0.389,0.856 -0.112,0.287 -0.224,0.752 -0.199,0.829 l 0.033,0.133 c 0.023,0.104 0.168,0.196 0.266,0.168 a 0.91,0.91 0 0 0 0.17,-0.082 v 0.001 a 1.77,1.77 0 0 0 0.291,-0.285 c 0.292,-0.346 0.616,-0.56 0.794,-0.526 0.069,0.013 0.083,-0.004 0.128,-0.157 0.095,-0.326 0.301,-0.681 0.563,-0.971 0.274,-0.304 0.385,-0.49 0.46,-0.781 0.093,-0.356 0.045,-0.649 -0.118,-0.736 -0.064,-0.034 -0.059,-0.042 0.08,-0.133 0.287,-0.19 0.552,-0.716 0.556,-1.1 a 0.79,0.79 0 0 0 -0.101,-0.412 c -0.119,-0.246 -0.134,-0.477 -0.054,-0.807 l 0.049,-0.217 c 10e-4,-0.011 -0.078,-0.013 -0.174,-0.005 -0.154,0.013 -0.187,0.004 -0.283,-0.077 -0.059,-0.05 -0.145,-0.174 -0.189,-0.274 -0.044,-0.1 -0.105,-0.21 -0.134,-0.242 -0.041,-0.045 -0.102,-0.063 -0.172,-0.056 z m -1.101,0.228 c -0.179,0 -0.291,0.101 -0.531,0.482 -0.196,0.31 -0.456,0.506 -0.67,0.506 -0.095,0 -0.096,0.002 -0.112,0.227 -0.02,0.283 -0.15,0.574 -0.37,0.827 -0.397,0.456 -0.506,1.136 -0.212,1.315 l 0.099,0.06 -0.115,0.071 c -0.17,0.105 -0.313,0.284 -0.438,0.547 -0.153,0.322 -0.173,0.519 -0.078,0.779 0.108,0.296 0.091,0.536 -0.065,0.899 l -0.063,0.147 0.093,-0.019 c 0.112,-0.022 0.282,0.058 0.336,0.16 0.021,0.04 0.059,0.184 0.082,0.32 0.058,0.331 0.124,0.382 0.368,0.28 0.36,-0.15 0.675,-0.682 0.88,-1.487 0.111,-0.437 0.107,-0.494 -0.023,-0.282 -0.147,0.239 -0.183,0.232 -0.239,-0.046 a 0.34,0.34 0 0 0 -0.083,-0.16 c -0.057,-0.051 -0.071,-0.052 -0.163,-0.006 -0.12,0.06 -0.121,0.059 -0.031,-0.118 0.082,-0.162 0.09,-0.402 0.018,-0.598 -0.059,-0.16 -0.03,-0.236 0.132,-0.347 l 0.118,-0.081 -0.095,-0.04 c -0.052,-0.022 -0.132,-0.043 -0.178,-0.045 -0.052,-0.003 -0.064,-0.011 -0.033,-0.023 l 0.231,-0.099 0.181,-0.08 -0.09,-0.048 c -0.131,-0.069 -0.115,-0.168 0.062,-0.394 0.2,-0.256 0.274,-0.423 0.275,-0.622 10e-4,-0.127 0.01,-0.154 0.04,-0.124 0.107,0.107 0.262,0.011 0.487,-0.301 0.154,-0.213 0.192,-0.211 0.222,0.011 l 0.019,0.14 0.046,-0.11 a 6.39,6.39 0 0 0 0.259,-1.039 c 0.044,-0.406 -0.108,-0.703 -0.36,-0.703 z m -1.883,0.265 c -0.27,0.001 -0.82,0.28 -1.267,0.641 L 49.549,39.507 49.328,39.4 c -0.121,-0.059 -0.308,-0.126 -0.415,-0.148 -0.214,-0.045 -0.672,-0.032 -0.77,0.023 -0.051,0.029 -0.028,0.041 0.137,0.07 0.336,0.059 0.647,0.263 0.781,0.512 l 0.061,0.113 -0.19,0.292 a 6.65,6.65 0 0 0 -0.879,2.153 c -0.094,0.444 -0.106,1.283 -0.024,1.609 l 0.053,0.209 -0.099,0.112 a 3.18,3.18 0 0 1 -1.162,0.773 l -0.165,0.059 0.217,0.002 c 0.146,0.002 0.29,-0.023 0.444,-0.075 v 0 c 0.232,-0.079 0.583,-0.248 0.821,-0.396 l 0.131,-0.081 0.189,0.18 c 0.243,0.232 0.5,0.352 0.792,0.369 0.149,0.009 0.222,10e-4 0.222,-0.023 0,-0.024 -0.019,-0.037 -0.043,-0.037 -0.085,0 -0.352,-0.197 -0.45,-0.333 -0.055,-0.076 -0.13,-0.233 -0.166,-0.349 l -0.065,-0.211 0.22,-0.27 c 0.518,-0.636 0.876,-1.352 1.066,-2.131 0.061,-0.252 0.076,-0.406 0.078,-0.79 10e-4,-0.502 -0.019,-0.624 -0.168,-0.984 -0.1,-0.243 -0.106,-0.227 0.188,-0.581 a 3.08,3.08 0 0 1 0.823,-0.687 c 0.191,-0.106 0.203,-0.119 0.115,-0.118 z m 0.551,0.06 -0.127,0.023 c -0.07,0.012 -0.138,0.032 -0.151,0.044 -0.013,0.012 -0.037,0.114 -0.052,0.226 l -0.028,0.205 h 0.104 c 0.057,0 0.127,-0.018 0.156,-0.041 0.029,-0.023 0.061,-0.12 0.076,-0.25 z m -3.754,0.767 -0.143,0.033 -0.154,0.043 c -0.006,0.006 -0.02,0.097 -0.031,0.201 l -0.02,0.19 0.144,-0.023 0.15,-0.03 c 0.004,-0.004 0.017,-0.099 0.03,-0.21 z m 9.038,0.166 c 0.025,0.097 -0.046,0.654 -0.124,1.031 a 9.72,9.72 0 0 1 -0.572,1.705 c -0.197,0.436 -0.26,0.533 -0.227,0.347 0.073,-0.412 0.275,-1.246 0.411,-1.697 0.184,-0.61 0.464,-1.364 0.512,-1.386 z m -10.506,0.092 c -0.058,-0.004 -0.12,0.015 -0.197,0.054 -0.373,0.188 -0.549,0.593 -0.549,1.265 l 10e-4,0.313 0.087,-0.157 c 0.048,-0.086 0.099,-0.156 0.114,-0.156 0.015,0 0.067,0.06 0.115,0.132 0.097,0.147 0.205,0.192 0.329,0.135 0.113,-0.052 0.114,-0.051 0.061,0.077 a 0.41,0.41 0 0 0 0.034,0.429 c 0.109,0.177 0.104,0.233 -0.031,0.321 -0.063,0.041 -0.115,0.084 -0.115,0.096 0,0.026 0.121,0.06 0.23,0.064 0.052,0.002 0.064,0.01 0.033,0.022 l -0.193,0.081 -0.144,0.061 0.086,0.068 c 0.047,0.037 0.086,0.082 0.086,0.098 0,0.016 -0.073,0.111 -0.163,0.21 -0.199,0.22 -0.265,0.342 -0.265,0.491 0,0.113 -0.001,0.113 -0.127,0.097 -0.119,-0.016 -0.14,-0.004 -0.346,0.188 -0.226,0.212 -0.239,0.212 -0.261,0.017 -0.01,-0.093 -0.016,-0.088 -0.1,0.094 -0.197,0.427 -0.263,0.655 -0.267,0.916 -0.003,0.223 0.006,0.262 0.075,0.336 0.043,0.046 0.11,0.088 0.148,0.095 0.061,0.01 0.242,-0.022 0.27,-0.048 l 0.267,-0.257 c 0.277,-0.267 0.439,-0.363 0.656,-0.387 0.118,-0.013 0.141,-0.028 0.156,-0.103 0.056,-0.279 0.167,-0.477 0.418,-0.744 0.345,-0.367 0.408,-0.492 0.41,-0.813 10e-4,-0.223 -0.008,-0.263 -0.079,-0.338 -0.044,-0.047 -0.103,-0.086 -0.132,-0.087 -0.037,-10e-4 -0.028,-0.018 0.029,-0.057 0.3,-0.206 0.491,-0.51 0.519,-0.828 0.015,-0.173 0.008,-0.195 -0.126,-0.395 -0.134,-0.2 -0.141,-0.226 -0.138,-0.428 0.002,-0.119 0.019,-0.256 0.038,-0.304 l 0.035,-0.088 -0.173,0.018 c -0.224,0.023 -0.348,-0.04 -0.503,-0.256 -0.108,-0.15 -0.189,-0.222 -0.285,-0.229 z m -1.106,0.24 c -0.037,-0.004 -0.074,-0.003 -0.108,0.004 -0.136,0.027 -0.238,0.115 -0.437,0.374 -0.191,0.249 -0.407,0.4 -0.608,0.427 -0.132,0.018 -0.135,0.021 -0.135,0.145 0,0.212 -0.112,0.447 -0.312,0.657 -0.241,0.252 -0.326,0.442 -0.306,0.683 0.013,0.153 0.032,0.197 0.119,0.275 0.057,0.051 0.13,0.093 0.162,0.093 0.032,0 -0.006,0.031 -0.083,0.069 a 0.86,0.86 0 0 0 -0.451,0.705 c -0.002,0.133 0.018,0.196 0.104,0.327 0.123,0.185 0.141,0.376 0.058,0.612 -0.061,0.171 -0.061,0.167 0,0.144 0.086,-0.033 0.274,0.02 0.377,0.107 a 0.48,0.48 0 0 1 0.135,0.217 c 0.043,0.158 0.164,0.29 0.267,0.29 0.04,0 0.136,-0.031 0.213,-0.068 0.27,-0.131 0.465,-0.437 0.569,-0.896 0.065,-0.287 0.109,-0.584 0.086,-0.584 -0.008,0 -0.047,0.059 -0.087,0.13 -0.098,0.174 -0.149,0.187 -0.215,0.058 a 0.97,0.97 0 0 0 -0.104,-0.163 c -0.058,-0.066 -0.206,-0.076 -0.265,-0.018 -0.053,0.053 -0.049,0.02 0.01,-0.094 0.071,-0.137 0.061,-0.267 -0.034,-0.429 -0.095,-0.162 -0.078,-0.241 0.082,-0.307 0.126,-0.052 0.105,-0.088 -0.071,-0.117 L 44.123,42.602 44.3,42.536 44.478,42.47 44.39,42.406 c -0.049,-0.035 -0.088,-0.077 -0.088,-0.093 0,-0.016 0.074,-0.113 0.164,-0.216 0.174,-0.199 0.234,-0.343 0.206,-0.491 -0.016,-0.083 -0.012,-0.087 0.051,-0.053 0.103,0.055 0.214,-0.003 0.407,-0.21 0.093,-0.1 0.183,-0.182 0.198,-0.182 0.015,0 0.038,0.044 0.049,0.099 0.033,0.166 0.065,0.141 0.138,-0.109 0.156,-0.533 0.173,-0.843 0.055,-1.024 -0.049,-0.075 -0.165,-0.132 -0.276,-0.144 z m -1.899,0.296 c -0.017,10e-4 -0.044,0.005 -0.081,0.01 -0.308,0.045 -0.808,0.27 -1.23,0.553 l -0.225,0.151 -0.203,-0.069 c -0.261,-0.089 -0.816,-0.12 -1.092,-0.06 l -0.197,0.042 0.287,0.043 c 0.315,0.047 0.596,0.165 0.734,0.309 l 0.086,0.09 -0.183,0.243 c -0.67,0.889 -0.855,1.931 -0.481,2.722 l 0.096,0.203 -0.122,0.111 a 2.31,2.31 0 0 1 -0.917,0.518 l -0.225,0.066 0.297,-0.011 c 0.193,-0.007 0.371,-0.037 0.511,-0.084 0.118,-0.04 0.328,-0.126 0.467,-0.19 l 0.252,-0.117 0.192,0.119 a 2.52,2.52 0 0 0 0.39,0.19 c 0.223,0.08 0.733,0.128 0.695,0.066 -0.013,-0.021 -0.049,-0.037 -0.081,-0.037 -0.183,0 -0.588,-0.307 -0.714,-0.542 L 41.594,44.5 41.773,44.288 a 3.22,3.22 0 0 0 0.54,-0.83 c 0.182,-0.387 0.245,-0.622 0.268,-1.01 0.028,-0.466 -0.076,-0.846 -0.305,-1.118 l -0.089,-0.105 0.227,-0.23 c 0.284,-0.287 0.48,-0.433 0.8,-0.596 0.187,-0.095 0.234,-0.119 0.184,-0.116 z m 0.512,0.022 -0.124,0.022 c -0.157,0.028 -0.16,0.031 -0.185,0.224 l -0.021,0.161 0.137,-0.022 c 0.075,-0.012 0.149,-0.03 0.164,-0.039 0.015,-0.009 0.028,-0.091 0.028,-0.181 z m 5.425,0.531 c 0.031,-0.029 -0.023,0.62 -0.074,0.888 -0.071,0.371 -0.198,0.788 -0.349,1.146 -0.172,0.406 -0.204,0.441 -0.175,0.189 0.039,-0.34 0.147,-0.875 0.252,-1.252 0.098,-0.349 0.307,-0.935 0.346,-0.971 z m 3.689,0.002 c -0.11,0.002 -0.237,0.084 -0.379,0.246 -0.301,0.341 -0.446,0.883 -0.319,1.186 0.074,0.177 0.199,0.205 0.417,0.095 0.136,-0.069 0.293,-0.27 0.421,-0.54 a 0.9,0.9 0 0 0 0.119,-0.534 c 0,-0.257 -0.008,-0.294 -0.08,-0.371 -0.053,-0.056 -0.113,-0.083 -0.178,-0.082 z m -12.885,0.242 -0.14,0.028 c -0.14,0.028 -0.14,0.028 -0.14,0.176 v 0.148 l 0.124,-0.022 c 0.068,-0.012 0.136,-0.033 0.15,-0.046 0.014,-0.013 0.022,-0.083 0.016,-0.154 z m -1.447,0.269 c -0.262,0.006 -0.527,0.206 -0.616,0.466 -0.047,0.138 -0.057,0.467 -0.018,0.615 l 0.025,0.096 0.064,-0.104 c 0.068,-0.112 0.133,-0.132 0.194,-0.058 a 0.4,0.4 0 0 0 0.355,0.121 l 0.1,-0.028 -0.015,0.136 c -0.013,0.119 -0.002,0.148 0.087,0.233 0.129,0.123 0.128,0.168 -0.005,0.237 -0.097,0.05 -0.101,0.057 -0.041,0.081 a 0.58,0.58 0 0 0 0.148,0.03 c 0.061,0.003 0.041,0.017 -0.074,0.053 -0.086,0.026 -0.157,0.055 -0.157,0.064 0,0.009 0.037,0.03 0.083,0.048 0.11,0.042 0.104,0.114 -0.019,0.205 -0.137,0.102 -0.239,0.274 -0.22,0.373 0.013,0.07 0.006,0.078 -0.06,0.061 -0.108,-0.027 -0.188,0.006 -0.366,0.153 -0.087,0.071 -0.169,0.13 -0.182,0.13 -0.013,0 -0.044,-0.046 -0.068,-0.103 l -0.042,-0.103 -0.09,0.26 c -0.19,0.549 -0.083,0.833 0.314,0.835 0.142,10e-4 0.175,-0.015 0.373,-0.182 0.257,-0.218 0.442,-0.309 0.633,-0.31 0.138,-10e-4 0.14,-0.002 0.14,-0.118 0,-0.173 0.079,-0.304 0.329,-0.542 0.255,-0.243 0.319,-0.388 0.262,-0.598 -0.037,-0.136 -0.167,-0.258 -0.274,-0.258 -0.049,0 -0.028,-0.021 0.07,-0.069 a 0.69,0.69 0 0 0 0.355,-0.406 c 0.075,-0.197 0.049,-0.279 -0.153,-0.479 l -0.169,-0.166 0.017,-0.212 0.017,-0.212 -0.081,0.03 c -0.204,0.077 -0.399,0.023 -0.656,-0.183 -0.094,-0.076 -0.155,-0.098 -0.257,-0.096 z m -1.044,0.217 c -0.161,-0.011 -0.354,0.082 -0.554,0.273 -0.238,0.228 -0.419,0.334 -0.627,0.367 -0.103,0.017 -0.132,0.034 -0.118,0.071 0.05,0.131 -0.026,0.286 -0.248,0.5 -0.249,0.241 -0.283,0.314 -0.228,0.48 0.038,0.115 0.106,0.17 0.26,0.211 0.08,0.021 0.078,0.025 -0.063,0.103 -0.175,0.097 -0.296,0.265 -0.296,0.411 0,0.089 0.03,0.134 0.173,0.257 0.171,0.147 0.173,0.151 0.171,0.332 l -0.002,0.183 h 0.125 a 0.63,0.63 0 0 1 0.488,0.235 0.67,0.67 0 0 0 0.177,0.162 c 0.088,0.037 0.295,0.012 0.419,-0.052 v -0.001 a 0.72,0.72 0 0 0 0.29,-0.375 1.62,1.62 0 0 0 0.038,-0.377 v -0.266 l -0.095,0.113 -0.095,0.114 -0.14,-0.127 c -0.125,-0.113 -0.153,-0.124 -0.265,-0.106 l -0.125,0.02 0.037,-0.099 c 0.034,-0.091 0.029,-0.108 -0.085,-0.224 -0.067,-0.069 -0.122,-0.135 -0.122,-0.148 0,-0.013 0.056,-0.052 0.124,-0.087 l 0.124,-0.066 -0.124,-0.001 c -0.148,-0.002 -0.163,-0.053 -0.025,-0.084 0.118,-0.026 0.164,-0.083 0.067,-0.083 -0.124,0 -0.121,-0.101 0.006,-0.211 0.144,-0.124 0.202,-0.232 0.178,-0.329 -0.016,-0.065 -0.008,-0.072 0.078,-0.059 0.11,0.016 0.261,-0.065 0.41,-0.221 0.118,-0.123 0.136,-0.124 0.194,-0.014 0.053,0.101 0.063,0.089 0.134,-0.151 0.081,-0.275 0.07,-0.503 -0.029,-0.622 -0.069,-0.082 -0.154,-0.126 -0.251,-0.132 z m 7.903,0.294 c -0.022,0 -0.047,0.002 -0.078,0.005 -0.273,0.031 -0.535,0.322 -0.609,0.675 -0.032,0.153 -0.029,0.203 0.018,0.325 0.03,0.079 0.08,0.159 0.11,0.176 0.095,0.055 0.281,0.037 0.41,-0.041 0.366,-0.222 0.537,-0.831 0.299,-1.069 -0.053,-0.053 -0.085,-0.071 -0.15,-0.071 z m -9.374,0.033 a 0.72,0.72 0 0 0 -0.079,0.011 c -0.182,0.029 -0.192,0.038 -0.192,0.167 0,0.11 10e-4,0.111 0.124,0.093 0.068,-0.01 0.142,-0.034 0.164,-0.052 0.022,-0.018 0.041,-0.077 0.041,-0.131 0,-0.073 -10e-4,-0.092 -0.058,-0.088 z m -0.491,0.006 a 1.03,1.03 0 0 0 -0.076,0.009 c -0.235,0.033 -0.705,0.2 -1.074,0.382 -0.288,0.142 -0.358,0.164 -0.457,0.146 a 5.4,5.4 0 0 0 -1.153,0.025 l -0.198,0.043 0.346,0.018 c 0.304,0.016 0.679,0.103 0.75,0.174 0.009,0.009 -0.08,0.118 -0.198,0.243 -0.291,0.308 -0.401,0.539 -0.416,0.872 a 0.69,0.69 0 0 0 0.09,0.464 1.45,1.45 0 0 0 0.28,0.376 l 0.178,0.168 -0.153,0.099 a 2.03,2.03 0 0 1 -0.674,0.283 l -0.204,0.044 0.22,0.003 A 2.48,2.48 0 0 0 33.39,45.2 v 0 a 4.78,4.78 0 0 0 0.455,-0.127 l 0.23,-0.079 0.228,0.077 c 0.333,0.113 0.676,0.177 0.931,0.174 l 0.224,-0.003 -0.247,-0.063 C 34.942,45.11 34.587,44.945 34.499,44.848 34.447,44.79 34.455,44.776 34.66,44.559 a 2.07,2.07 0 0 0 0.326,-0.454 c 0.103,-0.211 0.11,-0.245 0.11,-0.571 0,-0.326 -0.007,-0.358 -0.098,-0.522 -0.08,-0.144 -0.189,-0.258 -0.412,-0.426 -0.029,-0.022 0.238,-0.234 0.468,-0.373 0.122,-0.073 0.329,-0.177 0.461,-0.23 0.17,-0.069 0.215,-0.088 0.168,-0.085 z m 6.063,0.107 c 0.038,0.039 0.022,0.697 -0.027,0.931 -0.047,0.225 -0.208,0.701 -0.277,0.819 -0.027,0.047 -0.035,-0.015 -0.036,-0.263 a 3.47,3.47 0 0 1 0.065,-0.65 c 0.066,-0.324 0.21,-0.776 0.267,-0.836 z m -3.792,0.87 c -0.087,0.006 -0.182,0.037 -0.276,0.097 -0.181,0.115 -0.309,0.344 -0.275,0.495 0.038,0.172 0.234,0.31 0.396,0.278 l 0.124,-0.026 a 0.73,0.73 0 0 0 0.388,-0.368 c 0.097,-0.293 -0.095,-0.494 -0.356,-0.475 z m -3.76,0.233 c 0.059,0 0.112,0.264 0.11,0.543 -0.002,0.225 -0.02,0.342 -0.076,0.485 -0.041,0.104 -0.087,0.197 -0.103,0.207 -0.016,0.01 -0.052,-0.06 -0.08,-0.154 -0.059,-0.198 -0.066,-0.512 -0.016,-0.703 0.046,-0.177 0.135,-0.379 0.166,-0.379 z m 19.484,1.318 c -0.127,0 -0.148,0.01 -0.177,0.09 l -0.102,0.264 -0.069,0.173 h 0.133 c 0.13,0 0.135,-0.004 0.218,-0.19 0.16,-0.361 0.16,-0.337 -0.003,-0.337 z m -3.551,0.103 c -0.025,-10e-4 -0.06,-10e-4 -0.098,0.002 -0.136,0.01 -0.139,0.013 -0.214,0.207 l -0.076,0.222 c 0,0.014 0.058,0.026 0.128,0.026 0.127,0 0.129,-0.002 0.214,-0.214 l 0.086,-0.233 c 0,-0.005 -0.016,-0.008 -0.041,-0.01 z m -3.445,0.083 c -0.012,-0.007 -0.077,-0.006 -0.144,0.003 -0.115,0.014 -0.125,0.026 -0.187,0.21 l -0.066,0.194 h 0.143 0.143 l 0.067,-0.197 c 0.037,-0.108 0.056,-0.202 0.044,-0.209 z m -3.637,0.091 A 0.56,0.56 0 0 0 42.9,44.71 c -0.129,0.017 -0.139,0.026 -0.173,0.161 l -0.036,0.177 c 0,0.042 0.1,0.045 0.204,0.006 v 0 c 0.055,-0.021 0.088,-0.074 0.118,-0.186 0.023,-0.086 0.037,-0.161 0.032,-0.166 z m -3.598,0.085 c -0.124,0 -0.159,0.041 -0.193,0.223 -0.02,0.106 -0.019,0.107 0.112,0.107 0.111,0 0.137,-0.013 0.164,-0.085 0.018,-0.047 0.032,-0.12 0.032,-0.164 0,-0.07 -0.015,-0.081 -0.114,-0.081 z m -3.5,0.095 -0.145,0.01 c -0.141,0.01 -0.145,0.013 -0.155,0.134 l -0.01,0.124 h 0.134 c 0.074,0 0.134,-0.013 0.134,-0.028 0,-0.015 0.009,-0.076 0.021,-0.134 z"
       fill="#ffff00"
       id="path86" />
  </g>
  <g
     transform="translate(-31.968,-94.832)"
     class="B"
     id="g120">
    <g
       class="D E F"
       id="g92">
      <path
         d="m 63.447,121.596 h 0.657 v 19.33 h -0.657 z"
         fill="url(#H)"
         class="C"
         id="path88"
         style="fill:url(#H);fill-opacity:1" />
      <path
         d="m 62.968,119.056 h 1.616 v 4.894 h -1.616 z"
         fill="url(#I)"
         class="C"
         id="path90"
         style="fill:url(#I)" />
    </g>
    <path
       d="m 63.536,121.292 v 0.999 l -3.855,-4.363 h 1.174 z"
       fill="url(#J)"
       class="D"
       id="path94"
       style="fill:url(#J)" />
    <path
       d="m 64.016,121.292 v 0.999 l 3.855,-4.363 h -1.174 z"
       fill="url(#K)"
       class="D"
       id="path96"
       style="fill:url(#K)" />
    <g
       transform="translate(-73.563)"
       id="g116">
      <g
         stroke-width="0.7"
         transform="matrix(0.264583,0,0,0.264583,31.268599,94.831898)"
         id="g102">
        <path
           d="m 400.893,60.133 -87.092,31.465 h 87.092 0.002 87.092 L 400.895,60.133 Z"
           fill="url(#N)"
           id="path98"
           style="fill:url(#linearGradient1007);fill-opacity:1" />
        <path
           d="m 400.893,60.133 -58.072,20.98 h 58.072 0.002 58.074 l -58.074,-20.98 z"
           fill="url(#O)"
           id="path100"
           style="fill:url(#O);fill-opacity:1" />
      </g>
      <g
         fill="none"
         class="D H"
         id="g114">
        <path
           d="m 137.334,110.753 -25.156,9.088"
           id="path104" />
        <path
           d="m 137.334,110.753 -17.576,9.101"
           id="path106" />
        <path
           d="m 137.334,110.753 -10.798,9.118 m 6.324,0.023 4.475,-9.141 0.004,9.141 m 0.003,-9.141 25.156,9.088"
           id="path108" />
        <path
           d="m 137.342,110.753 17.576,9.101"
           id="path110" />
        <path
           d="m 137.342,110.753 10.798,9.118 m -6.323,0.023 -4.475,-9.141 -0.004,9.141"
           id="path112" />
      </g>
    </g>
    <path
       d="m 63.776,108.066 c -0.391,-0.024 -0.811,0.574 -0.325,1.536 l -1.747,1.957 c 0.79,0.246 1.446,0.306 2.072,0.322 0.626,-0.017 1.282,-0.076 2.072,-0.322 l -1.747,-1.957 c 0.486,-0.962 0.066,-1.56 -0.325,-1.536 z"
       fill="url(#P)"
       class="D"
       id="path118"
       style="fill:url(#linearGradient993);fill-opacity:1" />
  </g>
  <path
     d="M 32.506,0 C 24.213,0 16.04,1.423 9.422,3.244 L 8.686,3.447 8.616,4.209 C 8.391,6.704 7.634,8.489 6.448,9.774 5.262,11.059 3.601,11.892 1.387,12.301 l -0.816,0.15 -0.082,0.826 c -2.097,21.106 2.802,35.218 9.773,44.541 6.971,9.323 15.949,13.832 21.863,16.013 l 0.381,0.141 0.383,-0.141 c 5.915,-2.181 14.891,-6.69 21.862,-16.013 6.971,-9.323 11.87,-23.435 9.773,-44.541 l -0.082,-0.826 -0.815,-0.15 C 61.414,11.891 59.753,11.058 58.567,9.774 57.381,8.49 56.622,6.704 56.397,4.209 L 56.328,3.447 55.59,3.244 C 48.972,1.422 40.798,0 32.506,0 Z m 0,2.207 c 7.807,0 15.531,1.333 21.883,3.035 0.358,2.439 1.158,4.514 2.555,6.027 1.375,1.49 3.27,2.39 5.426,2.926 1.246,13.487 -0.424,23.874 -3.611,31.899 -1.601,4.032 -3.584,7.471 -5.776,10.402 C 46.486,65.185 38.173,69.458 32.506,71.595 26.84,69.458 18.528,65.184 12.032,56.496 9.841,53.565 7.857,50.127 6.256,46.094 3.069,38.069 1.398,27.682 2.644,14.195 4.8,13.659 6.694,12.759 8.07,11.269 9.467,9.756 10.269,7.681 10.626,5.242 16.978,3.54 24.7,2.207 32.507,2.207 Z"
     opacity="0.998"
     fill="#d8cb00"
     stroke="#3b3b00"
     stroke-width="0.208"
     id="path122" />
  <g
     transform="translate(-105.655,-94.832)"
     id="g142">
    <g
       stroke="#606060"
       id="g138">
      <g
         stroke-width="0.329"
         id="g134">
        <path
           d="m 125.069,151.831 -3.569,2.776 c -1.731,-1.884 -3.256,-4.975 -3.296,-10.656 0.839,1.124 1.639,2.384 2.602,3.073 0.19,-0.581 0.544,-2.83 1.784,-3.94 -0.484,4.041 1.304,6.632 2.478,8.748 z"
           fill="url(#Q)"
           id="path126"
           style="fill:url(#Q);fill-opacity:1" />
        <path
           d="m 124.97,149.081 0.098,2.75 -3.569,2.776 -0.519,-3.174 z"
           fill="#dcdcdc"
           id="path128" />
        <path
           d="m 151.255,151.831 3.569,2.776 c 1.731,-1.884 3.256,-4.975 3.296,-10.656 -0.839,1.124 -1.639,2.384 -2.602,3.073 -0.19,-0.581 -0.544,-2.83 -1.784,-3.94 0.484,4.041 -1.304,6.632 -2.478,8.748 z"
           fill="url(#S)"
           id="path130"
           style="fill:url(#S);fill-opacity:1" />
        <path
           d="m 151.354,149.081 -0.098,2.75 3.569,2.776 0.519,-3.174 z"
           fill="#dcdcdc"
           id="path132" />
      </g>
      <path
         d="m 354.148,205.035 -15.078,8.889 c 13.393,23.693 38.148,38.289 64.938,38.289 26.79,0 51.541,-14.597 64.934,-38.289 l -15.076,-8.889 c -2.544,4.592 -5.658,8.841 -9.295,12.555 -10.687,10.914 -25.594,17.183 -40.562,17.184 -14.968,0.001 -29.877,-6.27 -40.564,-17.184 -3.637,-3.714 -6.751,-7.963 -9.295,-12.555 z"
         transform="matrix(0.264583,0,0,0.264583,31.268599,94.831898)"
         fill="url(#R)"
         stroke-width="1.243"
         class="C E F"
         id="path136"
         style="fill:url(#R);fill-opacity:1" />
    </g>
    <path
       d="m 124,154.474 2.325,-2.318 0.307,0.308 -1.153,1.149 2.304,0.005 0.416,0.417 -1.914,-0.036 -0.368,2.397 -0.405,-0.406 0.351,-2.001 -0.751,-0.011 -0.806,0.803 z m 3.419,1.108 q 0.449,-0.683 1.069,-0.827 0.621,-0.146 1.201,0.235 0.38,0.25 0.566,0.632 0.186,0.382 0.131,0.812 -0.052,0.43 -0.322,0.841 -0.274,0.417 -0.659,0.636 -0.385,0.219 -0.806,0.186 -0.419,-0.035 -0.777,-0.269 -0.387,-0.255 -0.569,-0.642 -0.182,-0.388 -0.126,-0.815 0.056,-0.427 0.293,-0.788 z m 0.371,0.252 q -0.326,0.496 -0.248,0.957 0.081,0.46 0.483,0.725 0.41,0.269 0.863,0.155 0.455,-0.114 0.803,-0.643 0.22,-0.335 0.27,-0.659 0.053,-0.325 -0.077,-0.605 -0.126,-0.281 -0.397,-0.459 -0.385,-0.253 -0.839,-0.171 -0.45,0.082 -0.858,0.701 z m 3.188,3.595 1.099,-2.679 -1.001,-0.41 0.147,-0.358 2.407,0.987 -0.147,0.358 -1.005,-0.412 -1.099,2.679 z m 1.719,0.669 1.948,-2.928 0.457,0.102 0.593,3.497 -0.483,-0.108 -0.156,-1.054 -1.339,-0.3 -0.569,0.891 z m 1.219,-1.108 1.086,0.243 -0.136,-0.962 q -0.062,-0.439 -0.078,-0.715 -0.13,0.294 -0.31,0.573 z m 4.311,1.917 -0.24,-3.274 1.452,-0.107 q 0.438,-0.032 0.672,0.041 0.234,0.07 0.387,0.284 0.153,0.213 0.172,0.484 0.026,0.348 -0.182,0.604 -0.208,0.256 -0.674,0.355 0.178,0.07 0.273,0.144 0.203,0.16 0.392,0.409 l 0.635,0.849 -0.545,0.04 -0.483,-0.649 q -0.211,-0.281 -0.346,-0.428 -0.134,-0.147 -0.237,-0.203 -0.101,-0.055 -0.203,-0.073 -0.075,-0.01 -0.242,0.002 l -0.502,0.037 0.107,1.454 z m 0.299,-1.861 0.931,-0.068 q 0.297,-0.022 0.46,-0.094 0.163,-0.075 0.24,-0.215 0.077,-0.143 0.065,-0.301 -0.017,-0.232 -0.198,-0.369 -0.178,-0.137 -0.543,-0.111 l -1.036,0.076 z m 3.566,1.432 -0.884,-3.161 2.286,-0.64 0.104,0.373 -1.868,0.522 0.271,0.968 1.749,-0.489 0.104,0.371 -1.749,0.489 0.301,1.076 1.941,-0.543 0.104,0.373 z m 2.852,-1.971 0.35,-0.216 q 0.136,0.207 0.302,0.302 0.166,0.092 0.411,0.08 0.243,-0.014 0.494,-0.14 0.222,-0.111 0.359,-0.263 0.137,-0.151 0.162,-0.307 0.026,-0.158 -0.042,-0.294 -0.069,-0.138 -0.2,-0.2 -0.132,-0.064 -0.352,-0.042 -0.141,0.013 -0.594,0.12 -0.454,0.105 -0.659,0.1 -0.265,-0.005 -0.451,-0.115 -0.184,-0.113 -0.286,-0.315 -0.111,-0.222 -0.082,-0.478 0.029,-0.257 0.221,-0.479 0.192,-0.221 0.488,-0.37 0.326,-0.164 0.628,-0.182 0.302,-0.021 0.539,0.116 0.236,0.137 0.376,0.39 l -0.358,0.215 q -0.169,-0.263 -0.415,-0.318 -0.243,-0.056 -0.582,0.114 -0.352,0.177 -0.449,0.388 -0.096,0.208 -0.005,0.391 0.079,0.158 0.245,0.203 0.163,0.046 0.69,-0.083 0.528,-0.132 0.744,-0.14 0.315,-0.01 0.529,0.111 0.212,0.119 0.331,0.355 0.117,0.234 0.088,0.51 -0.031,0.273 -0.225,0.516 -0.193,0.24 -0.507,0.397 -0.398,0.2 -0.727,0.219 -0.326,0.018 -0.597,-0.137 -0.27,-0.158 -0.425,-0.448 z m 3.836,-0.933 -1.888,-2.685 0.355,-0.25 1.888,2.685 z m 1.423,-1.035 -2.255,-2.385 0.316,-0.298 1.118,1.183 0.066,-2.303 0.428,-0.405 -0.087,1.913 2.386,0.431 -0.417,0.394 -1.991,-0.404 -0.03,0.75 0.782,0.827 z"
       id="path140" />
  </g>
  <path
     d="m 32.506,0.644 c -8.219,0 -16.343,1.413 -22.913,3.221 L 9.286,3.95 9.257,4.268 C 9.022,6.863 8.216,8.807 6.921,10.21 5.626,11.613 3.814,12.506 1.504,12.934 l -0.341,0.063 -0.034,0.344 c -2.084,20.98 2.777,34.902 9.648,44.092 6.871,9.19 15.727,13.64 21.57,15.795 l 0.159,0.058 0.16,-0.058 C 38.509,71.073 47.363,66.624 54.234,57.433 61.105,48.242 65.966,34.321 63.882,13.341 L 63.848,12.997 63.51,12.934 C 61.199,12.506 59.389,11.613 58.093,10.21 56.797,8.807 55.989,6.863 55.755,4.266 L 55.727,3.949 55.42,3.864 C 48.85,2.056 40.726,0.643 32.507,0.643 Z m 0,0.918 c 7.88,0 15.653,1.343 22.05,3.058 0.248,0.067 0.433,0.274 0.471,0.529 0.345,2.355 1.11,4.295 2.391,5.683 1.263,1.368 3.03,2.221 5.108,2.738 0.266,0.066 0.461,0.293 0.486,0.566 1.253,13.57 -0.424,24.066 -3.653,32.196 -1.622,4.085 -3.634,7.575 -5.859,10.55 -6.594,8.819 -15.029,13.153 -20.766,15.316 -0.147,0.055 -0.308,0.055 -0.455,0 C 26.542,70.034 18.109,65.7 11.516,56.882 9.291,53.907 7.28,50.417 5.657,46.332 2.428,38.202 0.749,27.706 2.002,14.136 2.027,13.863 2.222,13.636 2.488,13.57 4.566,13.053 6.333,12.2 7.596,10.832 8.877,9.444 9.643,7.503 9.988,5.149 10.025,4.895 10.21,4.687 10.459,4.62 16.856,2.906 24.627,1.562 32.507,1.562 Z"
     opacity="0.998"
     fill="#fff000"
     id="path124" />
</svg>
